# ProBuilder 4.5.2
# https://unity3d.com/unity/features/worldbuilding/probuilder
# 8/20/2022 12:48:59 PM

mtllib ./Plane.mtl
o Plane

g Plane
v 0 0 0
v 0 0 25
v -25 0 0
v -25 0 25
v 0 0 50
v -25 0 50
v 0 0 75
v -25 0 75
v 0 0 100
v -25 0 100
v -50 0 0
v -50 0 25
v -50 0 50
v -50 0 75
v -50 0 100
v -75 0 0
v -75 0 25
v -75 0 50
v -75 0 75
v -75 0 100
v -100 0 0
v -100 0 25
v -100 0 50
v -100 0 75
v -100 0 100

vt 0 0
vt 0 25
vt 25 0
vt 25 25
vt 0 50
vt 25 50
vt 0 75
vt 25 75
vt 0 100
vt 25 100
vt 50 0
vt 50 25
vt 50 50
vt 50 75
vt 50 100
vt 75 0
vt 75 25
vt 75 50
vt 75 75
vt 75 100
vt 100 0
vt 100 25
vt 100 50
vt 100 75
vt 100 100

vn 0 1 0

usemtl Prototype_512x512_Blue2
f 3/3/1 4/4/1 2/2/1 1/1/1
f 4/4/1 6/6/1 5/5/1 2/2/1
f 6/6/1 8/8/1 7/7/1 5/5/1
f 8/8/1 10/10/1 9/9/1 7/7/1
f 11/11/1 12/12/1 4/4/1 3/3/1
f 12/12/1 13/13/1 6/6/1 4/4/1
f 13/13/1 14/14/1 8/8/1 6/6/1
f 14/14/1 15/15/1 10/10/1 8/8/1
f 16/16/1 17/17/1 12/12/1 11/11/1
f 17/17/1 18/18/1 13/13/1 12/12/1
f 18/18/1 19/19/1 14/14/1 13/13/1
f 19/19/1 20/20/1 15/15/1 14/14/1
f 21/21/1 22/22/1 17/17/1 16/16/1
f 22/22/1 23/23/1 18/18/1 17/17/1
f 23/23/1 24/24/1 19/19/1 18/18/1
f 24/24/1 25/25/1 20/20/1 19/19/1

